{"title":"Aurangzeb-720p-bluray-x264-dts-DDR","uid":8702411,"size":3830191837,"categoryP":"video","categoryS":"hd___movies","magnet":"?xt=urn:btih:1d338fb837ec001f9c0d23426da08926c40cb094&amp;dn=Aurangzeb-720p-bluray-x264-dts-DDR&amp;tr=udp%3A%2F%2Ftracker.openbittorrent.com%3A80&amp;tr=udp%3A%2F%2Fopen.demonii.com%3A1337&amp;tr=udp%3A%2F%2Ftracker.coppersurfer.tk%3A6969&amp;tr=udp%3A%2F%2Fexodus.desync.com%3A6969","seeders":0,"leechers":0,"uploader":"NokiaAnir","files":12,"time":1374082306,"description":"DDR EDIT BY ANIRBAN SARKAR\n\nGeneral\nFormat : MPEG-4\nFormat profile : Base Media\nCodec ID : isom\nFile size : 3.55 GiB\nDuration : 2h 17mn\nOverall bit rate : 3 691 Kbps\nMovie name : Aurangzeb (2013) - Blu-Ray - 720p - x264 - DTS [DDR]\nEncoded date : UTC 2013-07-16 21:41:41\nTagged date : UTC 2013-07-16 21:41:41\nWriting application : Lavf51.12.1\n\n\nVideo\nID : 1\nFormat : AVC\nFormat/Info : Advanced Video Codec\nFormat profile : &lt;a class=&quot;__cf_email__&quot; href=&quot;/cdn-cgi/l/email-protection&quot; data-cfemail=&quot;23614250464f4a4d46636f100d12&quot;&gt;[email&amp;#160;protected]&lt;/a&gt;&lt;script cf-hash='f9e31' type=&quot;text/javascript&quot;&gt;\n/* &lt;![CDATA[ */!function(){try{var t=&quot;currentScript&quot;in document?document.currentScript:function(){for(var t=document.getElementsByTagName(&quot;script&quot;),e=t.length;e--;)if(t[e].getAttribute(&quot;cf-hash&quot;))return t[e]}();if(t&amp;&amp;t.previousSibling){var e,r,n,i,c=t.previousSibling,a=c.getAttribute(&quot;data-cfemail&quot;);if(a){for(e=&quot;&quot;,r=parseInt(a.substr(0,2),16),n=2;a.length-n;n+=2)i=parseInt(a.substr(n,2),16)^r,e+=String.fromCharCode(i);e=document.createTextNode(e),c.parentNode.replaceChild(e,c)}}}catch(u){}}();/* ]]&gt; */&lt;/script&gt;\nFormat settings, CABAC : No\nFormat settings, ReFrames : 1 frame\nCodec ID : avc1\nCodec ID/Info : Advanced Video Coding\nDuration : 2h 17mn\nBit rate mode : Variable\nBit rate : 3 558 Kbps\nWidth : 1 280 pixels\nHeight : 720 pixels\nDisplay aspect ratio : 16:9\nFrame rate mode : Constant\nFrame rate : 29.970 fps\nColor space : YUV\nChroma subsampling : 4:2:0\nBit depth : 8 bits\nScan type : Progressive\nBits/(Pixel*Frame) : 0.129\nStream size : 3.42 GiB (96%)\nLanguage : English\nEncoded date : UTC 2013-07-16 21:41:41\nTagged date : UTC 2013-07-16 21:41:41\n\nAudio\nID : 2\nFormat : AAC\nFormat/Info : Advanced Audio Codec\nFormat profile : LC\nCodec ID : 40\nDuration : 2h 17mn\nBit rate mode : Variable\nBit rate : 128 Kbps\nChannel(s) : 2 channels\nChannel positions : Front: L R\nSampling rate : 48.0 KHz\nCompression mode : Lossy\nStream size : 126 MiB (3%)\nEncoded date : UTC 2013-07-16 21:41:41\nTagged date : UTC 2013-07-16 21:41:41","torrent":{"xt":"urn:btih:1d338fb837ec001f9c0d23426da08926c40cb094","amp;dn":"Aurangzeb-720p-bluray-x264-dts-DDR","amp;tr":["udp%3A%2F%2Ftracker.openbittorrent.com%3A80","udp%3A%2F%2Fopen.demonii.com%3A1337","udp%3A%2F%2Ftracker.coppersurfer.tk%3A6969","udp%3A%2F%2Fexodus.desync.com%3A6969"],"infoHash":"1d338fb837ec001f9c0d23426da08926c40cb094","infoHashBuffer":{"type":"Buffer","data":[29,51,143,184,55,236,0,31,156,13,35,66,109,160,137,38,196,12,176,148]},"announce":[],"urlList":[]}}